<?xml version="1.0" encoding="UTF-8" standalone="no"?>
<!-- Created with Inkscape (http://www.inkscape.org/) -->

<svg
   width="241.08398"
   height="126.55726"
   viewBox="0 0 63.786802 33.48494"
   version="1.1"
   id="svg1"
   xml:space="preserve"
   xmlns="http://www.w3.org/2000/svg"
   xmlns:svg="http://www.w3.org/2000/svg"><defs
     id="defs1" /><g
     id="g232"
     transform="matrix(1.4368293,0,0,1.4368293,-911.42503,-340.76965)"
     style="fill:#10111f;fill-opacity:1"><g
       id="g231"
       transform="translate(41.705673,117.26654)"><g
         id="g224"
         transform="translate(-0.7873192,-0.52184903)"><g
           id="path222"
           style="opacity:1"
           transform="translate(6.3650613e-6)"><path
             style="baseline-shift:baseline;display:inline;overflow:visible;vector-effect:none;fill:#9d83bf;stroke-linejoin:bevel;enable-background:accumulate;stop-color:#000000;stop-opacity:1"
             d="M 613.52888,138.57095 595.55361,128.05909 Z"
             id="path247" /><path
             style="baseline-shift:baseline;display:inline;overflow:visible;vector-effect:none;fill:#d0cde0;stroke-linejoin:bevel;enable-background:accumulate;stop-color:#000000;stop-opacity:1"
             d="m 595.6543,127.88867 -0.20118,0.3418 17.97461,10.51172 0.20118,-0.3418 z"
             id="path248" /><g
             id="g246"><path
               style="baseline-shift:baseline;display:inline;overflow:visible;vector-effect:none;fill:#d0cde0;fill-rule:evenodd;enable-background:accumulate;stop-color:#000000;stop-opacity:1"
               d="m 613.52888,138.57095 -1.35735,0.35562 3.49856,0.89655 -2.49683,-2.60952 z"
               id="path246" /></g></g><g
           id="path223"
           style="opacity:1"><path
             style="baseline-shift:baseline;display:inline;overflow:visible;vector-effect:none;fill:#000000;fill-opacity:0;stroke-linejoin:bevel;enable-background:accumulate;stop-color:#000000;stop-opacity:1"
             d="m 613.52889,138.57095 -5.19964,-3.04073 z"
             id="path250" /><path
             style="baseline-shift:baseline;display:inline;overflow:visible;vector-effect:none;fill:#9d83bf;stroke-linejoin:bevel;enable-background:accumulate;stop-color:#000000;stop-opacity:1"
             d="m 608.42969,135.35937 -0.20117,0.3418 5.20117,3.04102 0.19922,-0.3418 z"
             id="path251" /><g
             id="g249"><path
               style="baseline-shift:baseline;display:inline;overflow:visible;vector-effect:none;fill:#9d83bf;fill-rule:evenodd;enable-background:accumulate;stop-color:#000000;stop-opacity:1"
               d="m 613.52889,138.57095 -1.35735,0.35562 3.49856,0.89655 -2.49683,-2.60952 z"
               id="path249" /></g></g><path
           style="fill:#000000;fill-opacity:0;stroke:#9d83bf;stroke-width:0.79375;stroke-linejoin:bevel;stroke-dasharray:none;stroke-opacity:1;paint-order:normal"
           d="m 599.44932,130.33728 -0.73295,-0.42863 z"
           id="path224" /></g><g
         id="g227"
         transform="matrix(-1,0,0,1,1208.2952,-0.52184903)"><g
           id="path225"
           style="opacity:1"
           transform="translate(6.3650613e-6)"><path
             style="baseline-shift:baseline;display:inline;overflow:visible;vector-effect:none;fill:#9d83bf;stroke-linejoin:bevel;enable-background:accumulate;stop-color:#000000;stop-opacity:1"
             d="M 613.52888,138.57095 595.55361,128.05909 Z"
             id="path244" /><path
             style="baseline-shift:baseline;display:inline;overflow:visible;vector-effect:none;fill:#d0cde0;stroke-linejoin:bevel;enable-background:accumulate;stop-color:#000000;stop-opacity:1"
             d="m 595.6543,127.88867 -0.20118,0.3418 17.97461,10.51172 0.20118,-0.3418 z"
             id="path245" /><g
             id="g243"><path
               style="baseline-shift:baseline;display:inline;overflow:visible;vector-effect:none;fill:#d0cde0;fill-rule:evenodd;enable-background:accumulate;stop-color:#000000;stop-opacity:1"
               d="m 613.52888,138.57095 -1.35735,0.35562 3.49856,0.89655 -2.49683,-2.60952 z"
               id="path243" /></g></g><g
           id="path226"
           style="opacity:1"><path
             style="baseline-shift:baseline;display:inline;overflow:visible;vector-effect:none;fill:#000000;fill-opacity:0;stroke-linejoin:bevel;enable-background:accumulate;stop-color:#000000;stop-opacity:1"
             d="m 613.52889,138.57095 -5.19964,-3.04073 z"
             id="path241" /><path
             style="baseline-shift:baseline;display:inline;overflow:visible;vector-effect:none;fill:#846cc8;stroke-linejoin:bevel;enable-background:accumulate;stop-color:#000000;stop-opacity:1"
             d="m 608.42969,135.35937 -0.20117,0.3418 5.20117,3.04102 0.19922,-0.3418 z"
             id="path242" /><g
             id="g240"><path
               style="baseline-shift:baseline;display:inline;overflow:visible;vector-effect:none;fill:#846cc8;fill-rule:evenodd;enable-background:accumulate;stop-color:#000000;stop-opacity:1"
               d="m 613.52889,138.57095 -1.35735,0.35562 3.49856,0.89655 -2.49683,-2.60952 z"
               id="path240" /></g></g><path
           style="fill:#000000;fill-opacity:0;stroke:#846cc8;stroke-width:0.79375;stroke-linejoin:bevel;stroke-dasharray:none;stroke-opacity:1;paint-order:normal"
           d="m 599.44932,130.33728 -0.73295,-0.42863 z"
           id="path227" /></g><g
         id="g230"
         transform="matrix(0.5,-0.8660254,-0.8660254,-0.5,416.9375,722.99876)"><g
           id="path228"
           style="opacity:1"
           transform="translate(6.3650613e-6)"><path
             style="baseline-shift:baseline;display:inline;overflow:visible;vector-effect:none;fill:#9d83bf;stroke-linejoin:bevel;enable-background:accumulate;stop-color:#000000;stop-opacity:1"
             d="M 613.52888,138.57095 595.55361,128.05909 Z"
             id="path235" /><path
             style="baseline-shift:baseline;display:inline;overflow:visible;vector-effect:none;fill:#d0cde0;stroke-linejoin:bevel;enable-background:accumulate;stop-color:#000000;stop-opacity:1"
             d="m 595.6543,127.88867 -0.20118,0.3418 17.97461,10.51172 0.20118,-0.3418 z"
             id="path236" /><g
             id="g234"><path
               style="baseline-shift:baseline;display:inline;overflow:visible;vector-effect:none;fill:#d0cde0;fill-rule:evenodd;enable-background:accumulate;stop-color:#000000;stop-opacity:1"
               d="m 613.52888,138.57095 -1.35735,0.35562 3.49856,0.89655 -2.49683,-2.60952 z"
               id="path234" /></g></g><g
           id="path229"
           style="opacity:1"><path
             style="baseline-shift:baseline;display:inline;overflow:visible;vector-effect:none;fill:#000000;fill-opacity:0;stroke-linejoin:bevel;enable-background:accumulate;stop-color:#000000;stop-opacity:1"
             d="m 613.52889,138.57095 -5.19964,-3.04073 z"
             id="path238" /><path
             style="baseline-shift:baseline;display:inline;overflow:visible;vector-effect:none;fill:#1e2029;stroke-linejoin:bevel;enable-background:accumulate;stop-color:#000000;stop-opacity:1"
             d="m 608.42969,135.35937 -0.20117,0.3418 5.20117,3.04102 0.19922,-0.3418 z"
             id="path239" /><g
             id="g237"><path
               style="baseline-shift:baseline;display:inline;overflow:visible;vector-effect:none;fill:#1e2029;fill-rule:evenodd;enable-background:accumulate;stop-color:#000000;stop-opacity:1"
               d="m 613.52889,138.57095 -1.35735,0.35562 3.49856,0.89655 -2.49683,-2.60952 z"
               id="path237" /></g></g><path
           style="fill:#000000;fill-opacity:0;stroke:#1e2029;stroke-width:0.79375;stroke-linejoin:bevel;stroke-dasharray:none;stroke-opacity:1;paint-order:normal"
           d="m 599.44932,130.33728 -0.73295,-0.42863 z"
           id="path230" /></g></g><path
       style="font-weight:600;font-size:8.46667px;font-family:'Fira Code';-inkscape-font-specification:'Fira Code Semi-Bold';fill:#1e2029;stroke-width:0.134504"
       d="m 652.41746,253.47604 q -0.25617,0.16933 -0.62089,0.27788 -0.36472,0.10854 -0.79022,0.10854 -0.84232,0 -1.26783,-0.43418 -0.4255,-0.43853 -0.4255,-1.16363 v -2.31856 h -0.99864 v -0.81193 h 0.99864 v -1.01166 l 1.14625,-0.13894 v 1.1506 h 1.51966 l -0.11723,0.81193 h -1.40243 v 2.31422 q 0,0.35603 0.17368,0.52103 0.17367,0.16499 0.5601,0.16499 0.24749,0 0.45156,-0.0564 0.20841,-0.0608 0.37774,-0.15196 z m 2.21871,-1.69334 q 0.0521,0.64694 0.38208,0.93351 0.32999,0.28656 0.80325,0.28656 0.32998,0 0.62089,-0.1042 0.29091,-0.10421 0.57313,-0.29091 l 0.47761,0.65562 q -0.3213,0.2692 -0.76852,0.43419 -0.44287,0.16499 -0.97692,0.16499 -0.7468,0 -1.25915,-0.30827 -0.508,-0.30827 -0.76851,-0.85535 -0.26051,-0.54708 -0.26051,-1.25915 0,-0.68601 0.25183,-1.23743 0.25617,-0.55142 0.73812,-0.87272 0.48629,-0.32564 1.16796,-0.32564 0.94653,0 1.50229,0.61655 0.55577,0.61654 0.55577,1.70636 0,0.25182 -0.0217,0.45589 z m 0.9856,-1.97121 q -0.41682,0 -0.68601,0.29959 -0.26486,0.29959 -0.31262,0.93785 h 1.93648 q -0.009,-0.58182 -0.2388,-0.90746 -0.23012,-0.32998 -0.69905,-0.32998 z m 3.29116,3.92072 v -0.79457 h 0.64694 v -3.01326 h -0.64694 v -0.79022 h 1.51965 l 0.21276,1.05507 q 0.25183,-0.58181 0.63391,-0.8814 0.38209,-0.29959 0.95956,-0.29959 0.22143,0 0.39077,0.0347 0.16933,0.0347 0.32998,0.0912 l -0.20407,1.79319 h -0.76417 v -0.89877 q -0.44721,0.0391 -0.77286,0.40814 -0.32564,0.36472 -0.51234,0.9639 v 1.53702 h 0.91614 v 0.79457 z m 8.43628,-4.72831 q 0.43418,0 0.68601,0.2909 0.25183,0.28657 0.25183,1.02903 v 3.40838 h -0.99863 v -3.2651 q 0,-0.30827 -0.0478,-0.43853 -0.0478,-0.1346 -0.22578,-0.1346 -0.14328,0 -0.2909,0.0868 -0.14763,0.0825 -0.29959,0.29959 v 3.4518 h -0.86404 v -3.2651 q 0,-0.30827 -0.0478,-0.43853 -0.0478,-0.1346 -0.22578,-0.1346 -0.14328,0 -0.2909,0.0868 -0.14763,0.0825 -0.29959,0.29959 v 3.4518 h -1.01166 v -4.59805 h 0.85535 l 0.0738,0.4776 q 0.20407,-0.28222 0.42985,-0.44287 0.22577,-0.16499 0.54273,-0.16499 0.26051,0 0.46024,0.13026 0.20407,0.12591 0.29091,0.43418 0.19972,-0.25183 0.44287,-0.40813 0.24749,-0.15631 0.56879,-0.15631 z m 3.59508,-1.40677 q 0.61655,0 1.05942,0.20841 0.44287,0.20407 0.67733,0.55142 0.23446,0.34735 0.23446,0.76417 0,0.56444 -0.33866,0.92916 -0.33867,0.36038 -0.86838,0.49498 0.39511,0.0478 0.70773,0.21709 0.31695,0.16499 0.50365,0.47761 0.18671,0.31261 0.18671,0.79022 0,0.508 -0.27354,0.92482 -0.27354,0.41682 -0.7772,0.66431 -0.49932,0.24314 -1.18533,0.24314 -0.61655,0 -1.13758,-0.21709 -0.51668,-0.22144 -0.8814,-0.64694 l 0.67299,-0.60786 q 0.25617,0.29959 0.58616,0.43853 0.33432,0.13894 0.6947,0.13894 0.508,0 0.81193,-0.26052 0.30827,-0.26485 0.30827,-0.74246 0,-0.53405 -0.29959,-0.75549 -0.29524,-0.22577 -0.79456,-0.22577 h -0.53405 l 0.1346,-0.81628 h 0.37774 q 0.40814,0 0.6947,-0.21275 0.29091,-0.21709 0.29091,-0.66431 0,-0.39077 -0.27354,-0.60786 -0.27354,-0.22144 -0.68602,-0.22144 -0.3734,0 -0.66431,0.13894 -0.2909,0.13894 -0.56444,0.39511 l -0.59484,-0.62957 q 0.79891,-0.76851 1.93214,-0.76851 z m 7.78065,3.10444 q 0,0.92483 -0.24314,1.51966 -0.24315,0.5905 -0.65128,0.92048 -0.40814,0.32999 -0.91614,0.46024 -0.50366,0.13026 -1.02903,0.13026 h -1.53702 v -6.00482 h 1.43282 q 0.5601,0 1.08547,0.12157 0.52537,0.11723 0.94219,0.43419 0.42116,0.31695 0.66865,0.90311 0.24748,0.58181 0.24748,1.51531 z m -1.24177,0 q 0,-0.66865 -0.12592,-1.08112 -0.12157,-0.41248 -0.33432,-0.62958 -0.21276,-0.22143 -0.48195,-0.29959 -0.2692,-0.0781 -0.5601,-0.0781 H 675.538 v 4.23768 h 0.44722 q 0.40813,0 0.7468,-0.17802 0.33867,-0.17802 0.54274,-0.6426 0.20841,-0.46892 0.20841,-1.32862 z"
       id="path231"
       aria-label="term3D" /><path
       d="m 645.54135,246.46318 q 0.70917,0 1.19546,0.18742 0.48629,0.18236 0.9118,0.52682 l -0.61293,0.72944 q -0.62306,-0.51669 -1.43861,-0.51669 -0.52175,0 -0.96245,0.26341 -0.4407,0.26341 -0.70918,0.85607 -0.2634,0.59267 -0.2634,1.58045 0,0.96751 0.25327,1.56018 0.25328,0.59267 0.68891,0.86114 0.44071,0.26847 0.99285,0.26847 0.56227,0 0.93205,-0.18236 0.36979,-0.18742 0.65346,-0.42043 l 0.56734,0.72437 q -0.34952,0.33939 -0.88647,0.5876 -0.53695,0.24314 -1.30691,0.24314 -0.89153,0 -1.59564,-0.41537 -0.70411,-0.41537 -1.11441,-1.22586 -0.40525,-0.81555 -0.40525,-2.00088 0,-1.1752 0.42044,-1.98062 0.42044,-0.81049 1.11948,-1.22586 0.70411,-0.42044 1.56019,-0.42044 z"
       id="path232"
       style="font-weight:500;font-size:9.87778px;font-family:'Fira Code';-inkscape-font-specification:'Fira Code Medium';letter-spacing:1.01636px;fill:#d9bf68;stroke-width:3.04907;stroke-linejoin:bevel;paint-order:markers fill stroke"
       aria-label="C" /></g></svg>
